<svg width="254" height="53" viewBox="0 0 254 53" fill="none" xmlns="http://www.w3.org/2000/svg">
<rect x="25.3824" y="2" width="33.0677" height="33.0677" transform="rotate(45 25.3824 2)" stroke="black" stroke-width="2"/>
<rect x="24.7799" y="49.1628" width="34.4533" height="5.42662" transform="rotate(-45 24.7799 49.1628)" fill="black"/>
<path d="M69.4141 13.873H77.8564C81.7035 13.873 84.4928 14.4235 86.2246 15.5244C87.9688 16.613 88.8408 18.3509 88.8408 20.7383C88.8408 22.3587 88.4574 23.6885 87.6904 24.7275C86.9359 25.7666 85.9277 26.3913 84.666 26.6016V26.7871C86.3854 27.1706 87.6224 27.888 88.377 28.9395C89.1439 29.9909 89.5273 31.3887 89.5273 33.1328C89.5273 35.6068 88.6305 37.5365 86.8369 38.9219C85.0557 40.3073 82.6312 41 79.5635 41H69.4141V13.873ZM75.166 24.6162H78.5059C80.0645 24.6162 81.1901 24.375 81.8828 23.8926C82.5879 23.4102 82.9404 22.6123 82.9404 21.499C82.9404 20.46 82.557 19.7178 81.79 19.2725C81.0355 18.8148 79.8356 18.5859 78.1904 18.5859H75.166V24.6162ZM75.166 29.1807V36.25H78.9141C80.4974 36.25 81.6663 35.9469 82.4209 35.3408C83.1755 34.7347 83.5527 33.807 83.5527 32.5576C83.5527 30.3063 81.9447 29.1807 78.7285 29.1807H75.166ZM100.159 41H94.5V12.1289H100.159V41ZM110.624 30.5908C110.624 32.6442 110.958 34.1966 111.626 35.248C112.306 36.2995 113.407 36.8252 114.929 36.8252C116.438 36.8252 117.52 36.3057 118.176 35.2666C118.844 34.2152 119.178 32.6566 119.178 30.5908C119.178 28.5374 118.844 26.9974 118.176 25.9707C117.508 24.944 116.413 24.4307 114.892 24.4307C113.382 24.4307 112.294 24.944 111.626 25.9707C110.958 26.985 110.624 28.5251 110.624 30.5908ZM124.967 30.5908C124.967 33.9678 124.076 36.6087 122.295 38.5137C120.514 40.4186 118.034 41.3711 114.854 41.3711C112.863 41.3711 111.106 40.9382 109.585 40.0723C108.063 39.194 106.895 37.9385 106.078 36.3057C105.262 34.6729 104.854 32.7679 104.854 30.5908C104.854 27.2015 105.738 24.5667 107.507 22.6865C109.276 20.8063 111.762 19.8662 114.966 19.8662C116.957 19.8662 118.714 20.2992 120.235 21.165C121.757 22.0309 122.926 23.2741 123.742 24.8945C124.559 26.515 124.967 28.4137 124.967 30.5908ZM138.066 41.3711C131.609 41.3711 128.381 37.8271 128.381 30.7393C128.381 27.2139 129.259 24.5234 131.016 22.668C132.772 20.8001 135.289 19.8662 138.567 19.8662C140.967 19.8662 143.119 20.3363 145.024 21.2764L143.354 25.6553C142.464 25.2965 141.635 25.0059 140.868 24.7832C140.101 24.5482 139.334 24.4307 138.567 24.4307C135.623 24.4307 134.151 26.5212 134.151 30.7021C134.151 34.7594 135.623 36.7881 138.567 36.7881C139.656 36.7881 140.664 36.6458 141.592 36.3613C142.52 36.0645 143.447 35.6068 144.375 34.9883V39.8311C143.46 40.4124 142.532 40.8145 141.592 41.0371C140.664 41.2598 139.489 41.3711 138.066 41.3711ZM154.636 29.7188L157.104 26.5645L162.911 20.2559H169.294L161.056 29.2549L169.795 41H163.264L157.289 32.5947L154.858 34.543V41H149.199V12.1289H154.858V25.0059L154.562 29.7188H154.636Z" fill="black"/>
</svg>
